# xmcd
#
# Track frame offsets: 
#        150
#        15122
#        29111
#        41853
#        59124
#        68961
#        81479
#        97613
#        111421
#        122545
#        131627
#        147370
#        172947
#        189383
#        215211
#        232841
#        247911
#        261755
#        270827
#        283261
#
# Disc length: 3996 seconds
#
# Revision: 0
# Processed by: cddbd v1.5.2PL0 Copyright (c) Steve Scherf et al.
# Submitted via: ExactAudioCopy v0.99pb5
#
DISCID=240f9a14
DTITLE=Various Artist - Guitarra Espanola
DYEAR=2011
DGENRE=Instrumental
TTITLE0=Asturias
TTITLE1=Hablame De Amor
TTITLE2=Maria Elena
TTITLE3=La Paloma
TTITLE4=Besame Mucho
TTITLE5=Maliendo Cafe
TTITLE6=Cuando Calenta El Sol
TTITLE7=Perfida
TTITLE8=Historias De Amor
TTITLE9=Granad
TTITLE10=Concerto De Aranjues
TTITLE11=Entre Dos Aguas
TTITLE12=Recueros De La Alhambra
TTITLE13=Bolero De Ravel
TTITLE14=La Leyenda Del Beso
TTITLE15=Sevilla
TTITLE16=Carmen
TTITLE17=Romance Anonimo
TTITLE18=Ojos De La Espanola
TTITLE19=Malaguena Salerosa
EXTD=
EXTT0=
EXTT1=
EXTT2=
EXTT3=
EXTT4=
EXTT5=
EXTT6=
EXTT7=
EXTT8=
EXTT9=
EXTT10=
EXTT11=
EXTT12=
EXTT13=
EXTT14=
EXTT15=
EXTT16=
EXTT17=
EXTT18=
EXTT19=
PLAYORDER=
